<?xml version="1.0" standalone="no"?>
<!DOCTYPE svg PUBLIC "-//W3C//DTD SVG 20010904//EN"
 "http://www.w3.org/TR/2001/REC-SVG-20010904/DTD/svg10.dtd">
<svg version="1.0" xmlns="http://www.w3.org/2000/svg"
 width="171pt" height="36pt" viewBox="0 0 171 36"
 preserveAspectRatio="xMidYMid meet">

<g transform="translate(0.000000,531.000000) scale(0.100000,-0.100000)"
fill="#000000" stroke="none">
<path d="M0 2674 c0 -1797 3 -2641 10 -2655 11 -19 67 -19 4090 -19 l4080 0 0
2655 0 2655 -4090 0 -4090 0 0 -2636z m2390 741 l0 -25 -332 0 c-294 0 -333
-2 -350 -17 -17 -15 -18 -49 -18 -665 0 -635 0 -648 20 -668 19 -19 33 -20
360 -20 336 0 339 0 360 22 19 21 20 34 20 240 0 211 1 218 20 218 19 0 20 -7
20 -231 l0 -231 -29 -29 -29 -29 -356 0 c-244 0 -363 4 -380 11 -55 26 -56 33
-56 720 0 569 2 634 17 666 28 60 41 62 406 63 l327 0 0 -25z m-230 -90 c0
-25 -1 -25 -85 -25 -84 0 -85 0 -85 25 0 25 1 25 85 25 84 0 85 0 85 -25z
m311 -17 c33 -39 42 -62 174 -428 70 -195 139 -372 153 -393 28 -41 42 -140
25 -171 -7 -13 -13 -11 -41 15 -39 37 -57 71 -65 124 -4 22 -65 202 -137 400
-85 234 -133 380 -137 418 -6 62 -1 69 28 35z m-38 -195 l16 -41 -123 -337
c-109 -300 -127 -343 -164 -384 l-42 -46 7 70 c4 54 32 143 124 397 140 386
147 404 158 392 4 -5 15 -28 24 -51z m983 -328 c45 -137 83 -248 83 -245 1 3
41 115 89 250 87 244 88 245 118 248 l31 3 88 -245 c48 -136 91 -246 95 -246
3 0 42 110 86 245 l78 245 43 0 c24 0 43 -3 43 -7 0 -5 -49 -159 -109 -343
-108 -333 -108 -335 -137 -338 l-29 -3 -89 253 c-49 139 -92 256 -95 261 -4 4
-48 -109 -98 -250 -89 -253 -91 -258 -119 -261 l-29 -2 -100 305 c-55 168
-105 324 -112 346 l-12 40 47 -3 46 -3 82 -250z m1244 215 l0 -40 -160 0 -160
0 0 -110 0 -110 125 0 125 0 0 -40 0 -40 -125 0 -125 0 0 -115 0 -115 165 0
165 0 0 -40 0 -40 -210 0 -210 0 0 345 0 345 205 0 205 0 0 -40z m574 -293
c82 -182 151 -338 154 -345 3 -10 -7 -12 -42 -10 l-47 3 -34 75 -34 75 -183 3
-183 2 -34 -80 -34 -80 -44 0 c-23 0 -43 3 -43 7 0 3 68 158 151 345 l152 338
36 0 36 0 149 -333z m406 48 c68 -156 125 -284 126 -282 1 1 56 126 123 277
67 151 125 278 130 283 5 5 26 7 49 5 l40 -3 -152 -340 -153 -340 -37 0 -37 0
-54 120 c-29 66 -98 220 -153 343 l-100 222 47 0 46 0 125 -285z m940 245 l0
-40 -155 0 -155 0 0 -110 0 -110 120 0 120 0 0 -40 0 -40 -120 0 -120 0 0
-115 0 -115 160 0 160 0 0 -40 0 -40 -205 0 -205 0 0 345 0 345 200 0 200 0 0
-40z m-4418 -325 l-27 -75 -77 0 -78 0 0 75 0 75 104 0 104 0 -26 -75z m430 0
l27 -75 -144 0 -143 0 26 75 27 75 90 0 90 0 27 -75z m388 0 l0 -75 -89 0 -90
0 -19 53 c-40 108 -49 97 82 97 l116 0 0 -75z m-879 -455 c19 0 49 -41 49 -69
0 -45 -30 -75 -75 -75 -83 0 -104 102 -30 142 11 7 26 9 33 7 8 -3 18 -5 23
-5z"/>
<path d="M4974 2757 l-71 -162 140 -3 c77 -1 142 -1 144 1 4 4 -125 306 -136
319 -3 4 -38 -66 -77 -155z"/>
</g>
</svg>
