<?xml version="1.0" standalone="no"?>
<!DOCTYPE svg PUBLIC "-//W3C//DTD SVG 20010904//EN"
 "http://www.w3.org/TR/2001/REC-SVG-20010904/DTD/svg10.dtd">
<svg version="1.0" xmlns="http://www.w3.org/2000/svg"
 width="752.000000pt" height="462.000000pt" viewBox="0 0 752.000000 462.000000"
 preserveAspectRatio="xMidYMid meet">

<g transform="translate(0.000000,462.000000) scale(0.100000,-0.100000)"
fill="#000000" stroke="none">
<path d="M2220 2759 c-143 -75 -248 -87 -353 -41 l-46 20 -15 -23 c-9 -14 -16
-26 -16 -29 0 -2 30 -14 66 -26 50 -17 83 -21 142 -19 73 4 129 24 263 96 3 2
9 -45 12 -105 4 -87 11 -122 32 -173 28 -66 91 -169 104 -169 4 0 14 11 21 25
12 22 10 28 -25 70 -20 26 -46 68 -56 95 -20 52 -39 184 -39 267 0 29 -3 53
-7 53 -5 -1 -42 -19 -83 -41z"/>
<path d="M2533 2744 c-3 -9 -3 -47 0 -85 8 -99 40 -160 131 -250 l76 -76 -62
-23 c-104 -37 -159 -69 -220 -128 -74 -71 -107 -120 -87 -133 28 -17 48 -8 72
34 50 85 160 156 325 211 l54 18 -85 84 c-112 110 -142 169 -142 276 0 68 -2
78 -20 82 -30 9 -35 7 -42 -10z"/>
<path d="M3109 2545 c-6 -5 102 -428 165 -644 l21 -74 74 -1 c65 -1 75 1 82
19 5 11 31 114 59 228 27 115 53 214 56 219 11 18 20 -9 74 -227 29 -115 56
-216 60 -224 5 -10 28 -14 81 -14 l73 0 68 254 c37 140 77 288 88 329 12 41
22 89 23 105 l2 30 -69 0 c-69 0 -70 0 -77 -30 -4 -16 -16 -70 -28 -120 -71
-307 -82 -348 -94 -329 -2 5 -15 52 -27 104 -45 188 -89 360 -95 370 -3 6 -35
10 -71 10 -57 0 -65 -2 -74 -22 -5 -13 -32 -115 -61 -228 -28 -113 -53 -212
-55 -220 -12 -34 -32 37 -117 410 l-12 55 -71 3 c-38 1 -72 0 -75 -3z"/>
<path d="M1673 2476 c14 -35 29 -184 24 -235 -5 -65 -44 -150 -88 -197 -29
-30 -30 -31 -11 -53 l18 -23 38 42 c62 68 87 136 87 227 0 43 -5 102 -11 132
-11 61 -10 67 17 53 10 -5 59 -20 108 -32 101 -25 197 -24 293 5 57 17 61 24
33 49 -18 16 -22 16 -80 -4 -33 -11 -81 -20 -106 -20 -56 0 -181 25 -255 51
-65 23 -74 23 -67 5z"/>
<path d="M4260 2351 c-139 -30 -222 -147 -206 -293 16 -156 108 -239 266 -242
81 -1 120 13 173 63 29 26 57 71 57 91 0 6 -23 10 -55 10 -48 0 -59 -4 -78
-26 -59 -68 -201 -37 -223 50 -13 55 -11 56 191 56 l185 0 -7 58 c-3 31 -12
72 -20 90 -19 45 -80 110 -118 126 -43 18 -122 26 -165 17z m99 -102 c33 -12
73 -72 64 -96 -3 -10 -37 -13 -119 -13 -102 0 -114 2 -114 18 0 31 35 75 70
88 45 16 60 16 99 3z"/>
<path d="M5955 2350 c-16 -5 -42 -12 -57 -17 -37 -11 -94 -66 -121 -117 -17
-34 -21 -57 -21 -131 1 -102 14 -141 66 -194 50 -52 110 -74 198 -75 81 -1
134 19 176 66 20 21 54 80 54 93 0 3 -25 5 -56 5 -48 0 -59 -4 -84 -29 -67
-66 -194 -34 -216 54 -13 54 -10 55 190 55 l185 0 -6 53 c-11 99 -59 179 -133
217 -42 22 -133 32 -175 20z m138 -130 c15 -16 27 -41 27 -55 l0 -25 -115 0
c-127 0 -130 2 -99 61 33 65 136 76 187 19z"/>
<path d="M4750 2326 c-49 -25 -93 -79 -88 -110 3 -17 12 -19 67 -20 56 -1 64
1 72 20 12 33 49 54 92 54 49 0 75 -14 88 -47 21 -56 -16 -80 -160 -102 -134
-21 -181 -61 -181 -156 0 -97 62 -149 178 -148 46 0 76 7 114 26 53 26 68 27
68 2 0 -9 18 -14 60 -17 33 -1 64 -2 68 -1 4 2 5 96 2 210 -6 239 -11 257 -83
292 -36 17 -62 21 -148 21 -88 -1 -111 -4 -149 -24z m240 -285 c0 -55 -21
-102 -53 -121 -41 -25 -83 -25 -124 0 -66 40 -33 121 56 135 20 3 50 9 66 14
41 10 55 4 55 -28z"/>
<path d="M5200 2342 c0 -10 169 -504 175 -510 6 -6 145 -5 152 2 9 9 173 487
173 505 0 7 -23 11 -65 11 l-64 0 -41 -132 c-56 -181 -71 -221 -80 -211 -8 8
-27 66 -80 241 l-31 102 -69 0 c-39 0 -70 -3 -70 -8z"/>
<path d="M1973 2248 c-17 -8 -21 -16 -16 -39 17 -87 -39 -222 -148 -358 -49
-60 -49 -61 -24 -61 48 0 179 -31 230 -54 63 -29 134 -92 160 -142 10 -22 20
-40 21 -42 2 -3 43 15 52 23 5 4 -26 53 -65 101 -62 79 -123 106 -305 138
l-37 7 50 65 c84 112 119 204 119 316 0 61 -2 63 -37 46z"/>
<path d="M2100 2002 c0 -25 5 -29 49 -41 28 -7 70 -26 94 -42 46 -30 143 -141
194 -220 l29 -47 49 87 c79 139 174 216 283 229 39 4 42 7 42 35 0 30 0 30
-46 23 -70 -9 -159 -54 -202 -100 -38 -41 -112 -158 -112 -177 0 -21 -19 -6
-54 45 -65 95 -126 150 -215 194 -99 50 -111 51 -111 14z"/>
</g>
<defs>
<linearGradient id="paint0_linear_120_1360" x1="15" y1="3" x2="15" y2="33" gradientUnits="userSpaceOnUse">
<stop stop-color="#877EFF"/>
<stop offset="0.461458" stop-color="#685DFF"/>
<stop offset="1" stop-color="#3121FF"/>
</linearGradient>
</defs>
</svg>
